<?xml version="1.0" encoding="utf-8"?>
<!-- Generator: Adobe Illustrator 18.1.1, SVG Export Plug-In . SVG Version: 6.00 Build 0)  -->
<!DOCTYPE svg PUBLIC "-//W3C//DTD SVG 1.1//EN" "http://www.w3.org/Graphics/SVG/1.1/DTD/svg11.dtd">
<svg version="1.1" id="Layer_1" xmlns="http://www.w3.org/2000/svg" xmlns:xlink="http://www.w3.org/1999/xlink" x="0px" y="0px"
	 viewBox="0 0 287 188" enable-background="new 0 0 287 188" xml:space="preserve">
<path id="d_fill" fill="#D6DE23" d="M160.9,37 M191.2,46c23.8,0,42.2,24.5,42.2,48c0,23.5-18.5,48-42.2,48h-21.3V46H191.2z"/>
<g id="logotype_1_">
	<path id="AD" fill="#969696" d="M196.2,0h-35.3v37h-30.3L117.5,0h-51L0,188h53.5l11.7-37h63.1l-7.5-25.4l-2.5-9L97.9,46h-9
		l22.6,79.3l4.6,16.7H58.7L47,179H12.5L72.7,9h38.5l13.1,36.9l0.1,0.1h36.5v105h30.3c27,0,51.2-27.7,51.2-57c0-29.2-24.2-57-51.2-57
		h-21.3V9h26.3C244.7,9,278,45.5,278,94c0,48.5-33.2,84.9-81.8,84.9l-59.4,0.1l2.4,8.9h57c54.2,0,90.8-40.7,90.8-94
		C287,40.7,250.5,0,196.2,0z M191.2,46c23.8,0,42.2,24.5,42.2,48c0,23.5-18.5,48-42.2,48h-21.3V46H191.2z"/>
	<g id="text_outlines" display="none">
		<path display="inline" d="M4.9,230.8v-2.6l3.9-0.4l-2.5-7.5H-6.8l-2.5,7.5l3.8,0.4v2.6h-10.8v-2.5l2-0.5c0.8-0.2,1-0.3,1.2-0.9
			l10.3-30.4h5.4l10.5,30.5c0.2,0.6,0.6,0.7,1.1,0.8l2.1,0.5v2.6H4.9z M-0.2,200.1l-5.5,16.7h11L-0.2,200.1z"/>
		<path display="inline" d="M18.1,230.8v-2.6l14-18.7h-9.3c-0.4,0-0.5,0.3-0.5,0.6l-0.6,3l-3.2,0.2v-7h18.8v2.7l-14,18.6h9.9
			c0.4,0,0.5-0.3,0.5-0.6l0.6-3.5l3.2-0.1v7.5H18.1z"/>
		<path display="inline" d="M40.6,230.8v-2.6l14-18.7h-9.3c-0.4,0-0.5,0.3-0.5,0.6l-0.6,3l-3.2,0.2v-7h18.8v2.7l-14,18.6h9.9
			c0.4,0,0.5-0.3,0.5-0.6l0.6-3.5l3.2-0.1v7.5H40.6z"/>
		<path display="inline" d="M82.8,229.3c-1.8,1.2-4.9,2-8,2c-8,0-11.5-5-11.5-12.5c0-9,5.2-13,12.3-13c3.4,0,6.1,0.9,7.1,1.5v6.3
			l-3.1-0.1l-0.6-3.1c0-0.3-0.1-0.5-0.6-0.7c-0.7-0.2-1.9-0.4-3.2-0.4c-4.2,0-7.5,2.5-7.5,9.3c0,6.6,3.1,9.2,7.7,9.2
			c2.3,0,4.7-0.8,6-1.6L82.8,229.3z"/>
		<path display="inline" d="M101.9,230.8l-0.4-3.1l-0.1,0c-2.3,2.1-4.9,3.7-8.5,3.7c-5.9,0-6.6-4.1-6.6-6.5c0-4.8,2.9-7,8.6-7.5
			l6.3-0.5v-2.5c0-3.5-0.7-5.2-4.7-5.2c-2.9,0-4.9,0.1-5,3.7l-4-0.4c0-5.8,5.4-6.5,9.1-6.5c6.7,0,8.9,1.9,8.9,8.5v12.6
			c0,0.8,0,0.9,0.8,1l2.4,0.3v2.6H101.9z M101.1,219.8l-5.3,0.5c-4,0.4-5.2,1.6-5.2,4c0,2.6,1.1,3.6,3.3,3.6c2.8,0,5.7-2.3,7.2-3.7
			V219.8z"/>
		<path display="inline" d="M127.1,229.9c-1.9,0.8-4.1,1.5-6.5,1.5c-4.5,0-6.5-2.1-6.5-6.4v-14.8c0-0.3,0-0.5-0.4-0.5h-3.4v-2.8
			c3.7-0.5,4.7-1.9,5.3-6.8h2.8v5.8c0,0.3,0,0.5,0.4,0.5h5.9l1,3.3h-7.3v14c0,3,0.7,4.1,3.4,4.1c1.5,0,3.1-0.4,4.4-0.9L127.1,229.9z
			"/>
		<path display="inline" d="M141.2,230.8v-2.6l3-0.3c0.7-0.1,0.8-0.2,0.8-1v-26.6c0-0.7-0.1-0.9-0.8-0.9l-1.7-0.4l-0.7-2.5h13.5
			c11.8,0,16.9,6.4,16.9,16.7c0,10.5-5.5,17.7-17.7,17.7H141.2z M154.4,227.3c9,0,13.2-5.1,13.2-13.6c0-10.6-4.7-13.9-13-13.9h-5.4
			v27.5H154.4z"/>
		<path display="inline" d="M195.4,229.2c-2.3,1.3-5.2,2.1-8.6,2.1c-8.5,0-11.3-5.7-11.3-12.7c0-8.7,4.8-12.7,10.7-12.7
			c5.7,0,9.7,3.1,9.7,11.4c0,0.6,0,1.6-0.1,2.4h-15.8c0.1,4.8,2.1,8.1,7.2,8.1c2.6,0,4.3-0.5,6.8-1.7L195.4,229.2z M191.7,216.3
			c-0.1-5.4-2.5-7-5.4-7c-3.1,0-5.8,1.7-6.2,7H191.7z"/>
		<path display="inline" d="M213.1,213.1l-0.6-2.9c0-0.3-0.1-0.5-0.5-0.6c-0.7-0.2-2.1-0.5-3.7-0.5c-3.4,0-5,1.5-5,3.6
			c0,2.7,2.8,3.3,5.9,4.1c3.7,0.9,7.7,2.1,7.7,7.2c0,5.5-4.6,7.4-9.5,7.4c-3.8,0-7.7-1.1-8.5-1.6v-6.3l3.1,0.2l0.6,3.3
			c0,0.3,0.1,0.5,0.6,0.7c0.6,0.2,2.3,0.8,4.6,0.8c3.1,0,5.2-1.2,5.2-3.8c0-2.9-2.7-3.5-5.7-4.2c-3.7-0.9-7.8-1.8-7.8-7
			c0-5.4,4.5-7.4,9.3-7.4c3.4,0,6.4,0.9,7.4,1.3v6.1L213.1,213.1z"/>
		<path display="inline" d="M219.8,230.8v-2.6l3.1-0.3c0.7,0,0.8-0.2,0.8-1v-16.1c0-0.5-0.1-0.9-0.6-1l-2.7-0.9l0.4-2.5h7.1v20.6
			c0,0.8,0,0.9,0.8,1l3,0.3v2.6H219.8z M225.2,201.1c-1.9,0-3.1-1.1-3.1-3c0-1.9,1.1-3,3.1-3s3,1.1,3,3
			C228.2,200,227.1,201.1,225.2,201.1z"/>
		<path display="inline" d="M252.5,209.7c1,1.2,1.7,2.7,1.7,4.9c0,5.6-4.3,8.7-9.8,8.7c-1.6,0-3-0.2-4-0.6l-2.1,4.1l5.8,0.3
			c8.5,0.5,12.3,0.9,12.3,6.5c0,4.7-4,7.6-12.2,7.6c-8.1,0-10.9-2.2-10.9-5.8c0-2.3,1.3-3.7,2.9-5.4c-1.3-0.4-2.1-1.3-2.1-2.6
			c0-0.8,0.4-1.6,1-2.6c0.8-1.1,1.7-2.3,2.6-3.4c-2.1-1.1-3.5-3.5-3.5-6.7c0-5.3,3.8-9,10.2-9c1.7,0,3.2,0.2,4.2,0.5h8.4v3
			L252.5,209.7z M239.6,231c-0.8,0.9-2.1,2.3-2.1,3.9c0,2.6,2.6,3.1,7.2,3.2c2.5,0,7.3-0.4,7.3-4c0-2.2-1.8-2.4-4.9-2.7L239.6,231z
			 M244.5,209.3c-3.4,0-5.9,1.7-5.9,5.4c0,2.8,1.6,5.1,5.7,5.1c3.5,0,5.7-2.1,5.7-5.4C250.1,211.2,248,209.3,244.5,209.3z"/>
		<path display="inline" d="M274.3,230.8v-2.6l2.3-0.3c0.6,0,0.8-0.3,0.8-1v-11.3c0-3.1-0.6-6.1-4.1-6.1c-2.7,0-5.2,1.3-7.3,3v14.3
			c0,0.8,0,0.9,0.8,1l2.6,0.3v2.6h-10.8v-2.6l2.3-0.3c0.7-0.1,0.8-0.2,0.8-1v-16.1c0-0.5-0.1-0.9-0.6-1l-2.7-0.9l0.4-2.5h6.2
			l0.4,2.8l0.1,0c2.4-1.8,5.3-3.3,8.7-3.3c5.4,0,7.4,3.5,7.4,8.7v12.4c0,0.8,0,0.9,0.8,1l2.7,0.3v2.6H274.3z"/>
	</g>
</g>
</svg>
